<?xml version="1.0" encoding="UTF-8" standalone="no"?>
<!-- Created with Inkscape (http://www.inkscape.org/) -->

<svg
   xmlns:dc="http://purl.org/dc/elements/1.1/"
   xmlns:cc="http://creativecommons.org/ns#"
   xmlns:rdf="http://www.w3.org/1999/02/22-rdf-syntax-ns#"
   xmlns:svg="http://www.w3.org/2000/svg"
   xmlns="http://www.w3.org/2000/svg"
   xmlns:sodipodi="http://sodipodi.sourceforge.net/DTD/sodipodi-0.dtd"
   xmlns:inkscape="http://www.inkscape.org/namespaces/inkscape"
   width="285.10001"
   height="285.10001"
   viewBox="0 0 285.10001 285.10001"
   id="svg4139"
   version="1.1"
   inkscape:version="0.92.5 (2060ec1f9f, 2020-04-08)"
   sodipodi:docname="icon.svg"
   inkscape:export-filename="/home/krassweiler/robot-project-utility/assets/icons/1024x1024.png"
   inkscape:export-xdpi="344.80533"
   inkscape:export-ydpi="344.80533">
  <defs
     id="defs4141" />
  <sodipodi:namedview
     id="base"
     pagecolor="#ffffff"
     bordercolor="#666666"
     borderopacity="1.0"
     inkscape:pageopacity="0.0"
     inkscape:pageshadow="2"
     inkscape:zoom="0.98994949"
     inkscape:cx="-36.807767"
     inkscape:cy="188.70045"
     inkscape:document-units="px"
     inkscape:current-layer="layer1"
     showgrid="false"
     fit-margin-top="5"
     fit-margin-left="5"
     fit-margin-right="5"
     fit-margin-bottom="5"
     units="px"
     inkscape:window-width="1920"
     inkscape:window-height="1055"
     inkscape:window-x="0"
     inkscape:window-y="0"
     inkscape:window-maximized="1" />
  <metadata
     id="metadata4144">
    <rdf:RDF>
      <cc:Work
         rdf:about="">
        <dc:format>image/svg+xml</dc:format>
        <dc:type
           rdf:resource="http://purl.org/dc/dcmitype/StillImage" />
        <dc:title></dc:title>
      </cc:Work>
    </rdf:RDF>
  </metadata>
  <g
     inkscape:label="Layer 1"
     inkscape:groupmode="layer"
     id="layer1"
     transform="translate(312.74493,-441.97394)">
    <rect
       style="opacity:1;fill:#d9534f;fill-opacity:1;stroke:none;stroke-width:2;stroke-linecap:round;stroke-linejoin:round;stroke-miterlimit:4;stroke-dasharray:none;stroke-opacity:1"
       id="rect4720"
       width="275.10001"
       height="275.10001"
       x="-307.74493"
       y="446.97394"
       rx="73.511742"
       ry="74.530167" />
    <g
       id="g4746"
       transform="matrix(0.8636143,0,0,0.8636143,-23.430193,88.508565)"
       style="fill:#ffffff;fill-opacity:1;stroke:none">
      <g
         style="font-style:normal;font-weight:normal;font-size:10px;line-height:125%;font-family:sans-serif;letter-spacing:0px;word-spacing:0px;fill:#ffffff;fill-opacity:1;stroke:none;stroke-width:1px;stroke-linecap:butt;stroke-linejoin:miter;stroke-opacity:1"
         id="text4698">
        <path
           d="m -109.70134,564.03333 q 13.183594,0 18.920899,-5.49317 5.859375,-5.49316 5.859375,-18.06641 0,-12.45117 -5.859375,-17.82226 -5.737305,-5.37109 -18.920899,-5.37109 l -17.82227,0 0,46.75293 17.82227,0 z m -17.82227,32.4707 0,68.96972 -42.35839,0 0,-182.25097 64.57519,0 q 32.470705,0 47.485353,12.08496 15.136719,12.08496 15.136719,38.20801 0,18.0664 -7.8125,29.66308 -7.8125,11.59668 -23.681641,17.08985 8.666992,2.19726 15.50293,10.00976 6.958008,7.69043 13.916016,23.4375 l 22.949218,51.75781 -45.043945,0 -19.897461,-45.28808 q -6.103516,-13.67188 -12.329102,-18.67676 -6.225587,-5.00488 -16.479487,-5.00488 l -11.9629,0 z"
           style="font-style:normal;font-variant:normal;font-weight:bold;font-stretch:semi-condensed;font-size:250px;font-family:'DejaVu Sans';-inkscape-font-specification:'DejaVu Sans Bold Semi-Condensed';fill:#ffffff;fill-opacity:1;stroke:none"
           id="path4753"
           inkscape:connector-curvature="0" />
      </g>
      <g
         transform="scale(-1,1)"
         style="font-style:normal;font-weight:normal;font-size:10px;line-height:125%;font-family:sans-serif;letter-spacing:0px;word-spacing:0px;fill:#ffffff;fill-opacity:1;stroke:none;stroke-width:1px;stroke-linecap:butt;stroke-linejoin:miter;stroke-opacity:1"
         id="text4698-3">
        <path
           d="m 157.55174,483.22278 42.3584,0 0,66.52832 60.91309,-66.52832 49.19433,0 -79.10156,86.30371 87.1582,95.94726 -52.97851,0 -65.18555,-71.77734 0,71.77734 -42.3584,0 0,-182.25097 z"
           style="font-style:normal;font-variant:normal;font-weight:bold;font-stretch:semi-condensed;font-size:250px;font-family:'DejaVu Sans';-inkscape-font-specification:'DejaVu Sans Bold Semi-Condensed';fill:#ffffff;fill-opacity:1;stroke:none"
           id="path4756"
           inkscape:connector-curvature="0" />
      </g>
    </g>
  </g>
</svg>
